<?xml version="1.0" encoding="UTF-8"?>
<!DOCTYPE svg PUBLIC "-//W3C//DTD SVG 1.1//EN" "http://www.w3.org/Graphics/SVG/1.1/DTD/svg11.dtd">
<!-- Creator: CorelDRAW X8 -->
<svg xmlns="http://www.w3.org/2000/svg" xml:space="preserve" width="100px" height="100px" version="1.1" style="shape-rendering:geometricPrecision; text-rendering:geometricPrecision; image-rendering:optimizeQuality; fill-rule:evenodd; clip-rule:evenodd"
viewBox="0 0 100 100"
 xmlns:xlink="http://www.w3.org/1999/xlink">
 <defs>
  <style type="text/css">
   <![CDATA[
    .fil0 {fill:black;fill-rule:nonzero}
   ]]>
  </style>
 </defs>
 <g id="Vrstva_x0020_1">
  <metadata id="CorelCorpID_0Corel-Layer"/>
  <path class="fil0" d="M85 15c-9,-10 -22,-15 -35,-15 -13,0 -26,5 -35,15 -10,9 -15,22 -15,35 0,13 5,26 15,35 9,10 22,15 35,15 13,0 26,-5 35,-15 10,-9 15,-22 15,-35 0,-13 -5,-26 -15,-35zm-35 80c-25,0 -45,-20 -45,-45 0,-25 20,-45 45,-45 25,0 45,20 45,45 0,25 -20,45 -45,45z"/>
  <path class="fil0" d="M35 20l0 -7 -4 0 0 8c-3,1 -5,2 -5,3 1,0 3,-1 5,0l0 42c-5,8 2,22 2,22 0,0 -5,-15 5,-21 10,-7 44,-4 44,-23 0,-27 -31,-27 -47,-24zm14 27c-2,7 -9,11 -14,14l0 -37c8,2 17,8 14,23z"/>
 </g>
</svg>
