<?xml version="1.0" encoding="UTF-8"?>
<!DOCTYPE svg PUBLIC "-//W3C//DTD SVG 1.1//EN" "http://www.w3.org/Graphics/SVG/1.1/DTD/svg11.dtd">
<!-- Creator: CorelDRAW X8 -->
<svg xmlns="http://www.w3.org/2000/svg" xml:space="preserve" width="820px" height="400px" version="1.1" style="shape-rendering:geometricPrecision; text-rendering:geometricPrecision; image-rendering:optimizeQuality; fill-rule:evenodd; clip-rule:evenodd"
viewBox="0 0 820 400"
 xmlns:xlink="http://www.w3.org/1999/xlink">
 <g id="Vrstva_x0020_1">
  <metadata id="CorelCorpID_0Corel-Layer"/>
  <path class="fil0" d="M187 56c-20,-20 -46,-30 -74,-30 -27,0 -53,10 -73,30 -19,20 -30,46 -30,73 0,28 11,54 30,73 20,20 46,31 73,31 28,0 54,-11 74,-31 19,-19 30,-45 30,-73 0,-27 -11,-53 -30,-73zm-74 167c-51,0 -93,-42 -93,-94 0,-51 42,-93 93,-93 52,0 94,42 94,93 0,52 -42,94 -94,94z"/>
  <path class="fil0" d="M82 68l0 -15 -9 0 0 17c-6,2 -10,4 -9,5 2,-1 5,-1 9,-1l0 88c-9,18 4,45 4,45 0,0 -10,-29 12,-43 21,-13 91,-7 91,-47 0,-56 -65,-56 -98,-49zm29 54c-3,15 -19,23 -29,30l0 -76c17,4 36,16 29,46z"/>
  <path class="fil0" d="M291 91l0 25 -21 0 0 -79c8,-1 16,-1 24,-1 24,0 37,9 37,26 0,10 -3,17 -9,22 -5,5 -13,8 -24,8 -3,0 -5,-1 -7,-1zm0 -15c2,0 3,0 5,0 5,0 8,-1 11,-3 2,-3 4,-6 4,-10 0,-7 -5,-11 -15,-11 -2,0 -3,0 -5,1l0 23z"/>
  <polygon class="fil0" points="341,37 364,37 364,116 341,116 "/>
  <path class="fil0" d="M401 88l0 28 -21 0 0 -79c9,-1 19,-1 28,-1 22,0 32,8 32,24 0,5 -1,9 -4,13 -3,4 -6,7 -11,8l0 0c2,2 4,3 6,5 1,2 2,5 4,8l8 22 -23 0 -6 -21c-1,-2 -2,-4 -3,-5 -2,-1 -3,-2 -5,-2l-5 0zm0 -15l6 0c4,0 6,-1 9,-3 2,-2 3,-4 3,-8 0,-7 -4,-10 -12,-10 -2,0 -4,0 -6,1l0 20z"/>
  <path class="fil0" d="M473 101l-3 15 -23 0 26 -79 23 0 26 79 -23 0 -4 -15 -22 0zm16 -71l-18 0 11 -19 24 0 -17 19zm-12 55l14 0 -7 -30 0 0 -7 30z"/>
  <polygon class="fil0" points="585,37 585,55 564,55 564,116 542,116 542,55 520,55 520,37 "/>
  <path class="fil0" d="M647 58c-8,-4 -15,-5 -23,-5 -3,0 -6,0 -7,1 -2,2 -3,3 -3,5 0,3 2,5 7,7 11,3 19,6 24,10 5,5 7,10 7,17 0,8 -3,14 -8,18 -6,4 -14,6 -25,6 -5,0 -10,-1 -15,-2 -5,-2 -9,-4 -13,-6l5 -17c4,3 8,5 12,6 4,2 8,2 12,2 7,0 10,-2 10,-7 0,-3 -3,-5 -9,-7 -10,-3 -18,-7 -22,-11 -5,-4 -7,-9 -7,-16 0,-7 3,-13 8,-17 6,-4 13,-6 23,-6 11,0 20,2 27,5l-3 17z"/>
  <polygon class="fil0" points="685,70 685,70 706,37 731,37 706,75 732,116 707,116 685,79 685,79 685,116 664,116 664,37 685,37 "/>
  <path class="fil0" d="M761 101l-3 15 -23 0 26 -79 23 0 26 79 -23 0 -4 -15 -22 0zm16 -71l-17 0 10 -19 24 0 -17 19zm-12 55l14 0 -7 -30 0 0 -7 30z"/>
  <path class="fil0" d="M323 165c-8,-4 -15,-6 -23,-6 -3,0 -6,1 -7,2 -2,1 -3,3 -3,5 0,3 2,5 7,6 11,3 19,7 24,11 5,5 7,10 7,16 0,8 -3,14 -8,19 -6,4 -14,6 -25,6 -5,0 -10,-1 -15,-3 -5,-1 -9,-3 -13,-5l5 -17c4,2 8,4 12,6 4,1 8,2 12,2 7,0 10,-2 10,-7 0,-3 -3,-5 -9,-7 -10,-3 -18,-7 -22,-11 -5,-4 -7,-10 -7,-16 0,-7 3,-13 8,-17 6,-4 13,-6 23,-6 11,0 20,1 27,5l-3 17z"/>
  <polygon class="fil0" points="400,144 400,162 378,162 378,223 356,223 356,162 335,162 335,144 "/>
  <path class="fil0" d="M432 195l0 28 -21 0 0 -79c10,-1 19,-1 28,-1 22,0 33,8 33,24 0,5 -2,9 -4,13 -3,4 -7,6 -11,8l0 0c2,1 4,3 5,5 1,2 3,5 4,8l8 22 -22 0 -7 -21c-1,-2 -2,-4 -3,-5 -1,-1 -3,-2 -5,-2l-5 0zm0 -16l6 0c4,0 7,0 9,-2 2,-2 3,-5 3,-8 0,-7 -4,-10 -12,-10 -2,0 -4,0 -6,0l0 20z"/>
  <path class="fil0" d="M506 208l-4 15 -22 0 26 -79 22 0 26 79 -23 0 -3 -15 -22 0zm4 -17l14 0 -7 -29 0 0 -7 29z"/>
  <polygon class="fil0" points="608,187 608,187 608,144 629,144 629,223 608,223 584,179 584,179 584,223 563,223 563,144 584,144 "/>
  <path class="fil0" d="M664 208l-3 15 -23 0 26 -79 23 0 26 79 -23 0 -4 -15 -22 0zm4 -17l14 0 -7 -29 0 0 -7 29z"/>
  <line class="fil2 str0" x1="10" y1="287" x2="810" y2= "287" />
 </g>
</svg>
