<?xml version="1.0" encoding="utf-8"?>
<!-- Generator: Adobe Illustrator 15.0.0, SVG Export Plug-In . SVG Version: 6.00 Build 0)  -->
<!DOCTYPE svg PUBLIC "-//W3C//DTD SVG 1.1//EN" "http://www.w3.org/Graphics/SVG/1.1/DTD/svg11.dtd">
<svg version="1.1" id="Vrstva_1" xmlns="http://www.w3.org/2000/svg" xmlns:xlink="http://www.w3.org/1999/xlink" x="0px" y="0px"
	 width="850.394px" height="425.197px" viewBox="0 0 850.394 425.197" enable-background="new 0 0 850.394 425.197"
	 xml:space="preserve">
<g>
	<defs>
		<rect id="SVGID_1_" width="850.394" height="425.197"/>
	</defs>
	<clipPath id="SVGID_2_">
		<use xlink:href="#SVGID_1_"  overflow="visible"/>
	</clipPath>
	<path clip-path="url(#SVGID_2_)" fill="#FFFFFF" d="M254.885,220.26c0,62.555-50.706,113.278-113.262,113.278
		c-62.552,0-113.277-50.724-113.277-113.278c0-62.553,50.725-113.276,113.277-113.276
		C204.179,106.984,254.885,157.708,254.885,220.26"/>
	<path clip-path="url(#SVGID_2_)" d="M141.623,311.816c-50.494,0-91.551-41.057-91.551-91.556c0-50.479,41.057-91.551,91.551-91.551
		c50.481,0,91.589,41.073,91.589,91.551C233.212,270.759,192.104,311.816,141.623,311.816 M213.151,148.72
		c-19.091-19.105-44.498-29.643-71.528-29.643c-26.992,0-52.403,10.538-71.555,29.643c-19.093,19.104-29.628,44.517-29.628,71.54
		c0,27.06,10.535,52.473,29.628,71.543c19.152,19.105,44.563,29.613,71.555,29.613c27.03,0,52.437-10.508,71.528-29.613
		c19.154-19.07,29.661-44.483,29.661-71.543C242.812,193.237,232.305,167.825,213.151,148.72"/>
	<path clip-path="url(#SVGID_2_)" d="M139.572,213.474c-3.085,14.675-19.089,22.305-28.432,28.657v-74.145
		C127.062,171.8,145.779,184.037,139.572,213.474 M111.14,160.066v-14.159h-8.858v16.357c-5.981,1.843-9.471,3.751-8.891,4.931
		c1.973-0.551,5.14-0.792,8.891-0.566v85.17c-9.018,17.647,3.976,44.661,3.976,44.661s-9.78-29.001,11.961-42.706
		c19.978-12.575,88.884-6.678,88.626-45.551C206.538,153.116,142.981,153.44,111.14,160.066"/>
	<path clip-path="url(#SVGID_2_)" d="M315.295,167.817c1.409,0.21,2.996,0.316,4.756,0.316c4.583,0,8.106-1.059,10.575-3.173
		c2.466-2.115,3.699-5.107,3.699-8.986c0-7.398-4.758-11.101-14.274-11.101c-1.55,0-3.137,0.177-4.756,0.528V167.817z
		 M315.295,183.147v24.107h-20.617v-76.653c7.33-1.06,15.083-1.587,23.261-1.587c23.963,0,35.948,8.636,35.948,25.903
		c0,9.377-2.699,16.477-8.088,21.306c-5.393,4.829-13.271,7.241-23.632,7.241C319.417,183.463,317.127,183.357,315.295,183.147"/>
</g>
<rect x="363.609" y="130.072" width="23.261" height="77.18"/>
<g>
	<defs>
		<rect id="SVGID_3_" width="850.394" height="425.197"/>
	</defs>
	<clipPath id="SVGID_4_">
		<use xlink:href="#SVGID_3_"  overflow="visible"/>
	</clipPath>
	<path clip-path="url(#SVGID_4_)" d="M422.5,164.964h5.816c3.596,0,6.429-0.901,8.508-2.699c2.08-1.798,3.119-4.245,3.119-7.347
		c0-6.697-3.874-10.044-11.627-10.044c-2.259,0-4.196,0.177-5.816,0.528V164.964z M422.5,180.293v26.961h-20.618V130.6
		c9.162-1.059,18.326-1.586,27.49-1.586c21.146,0,31.72,7.929,31.72,23.791c0,4.438-1.377,8.563-4.124,12.37
		c-2.751,3.804-6.311,6.519-10.678,8.142v0.21c2.111,1.2,3.874,2.733,5.283,4.599c1.41,1.87,2.751,4.53,4.021,7.984l7.61,21.145
		h-21.676l-6.555-20.09c-0.775-2.465-1.759-4.228-2.959-5.285c-1.202-1.059-2.783-1.586-4.758-1.586H422.5z"/>
</g>
<path d="M496.933,176.591h13.957l-6.874-28.547h-0.212L496.933,176.591z M508.349,123.728h-16.914l10.571-19.03h23.261
	L508.349,123.728z M493.127,192.451l-3.489,14.803h-21.99l25.373-77.183h22.199l25.376,77.183h-22.413l-3.593-14.803H493.127z"/>
<polygon points="602.552,130.07 602.552,147.515 581.62,147.515 581.62,207.251 560.051,207.251 560.051,147.515 539.114,147.515 
	539.114,130.07 "/>
<g>
	<defs>
		<rect id="SVGID_5_" width="850.394" height="425.197"/>
	</defs>
	<clipPath id="SVGID_6_">
		<use xlink:href="#SVGID_5_"  overflow="visible"/>
	</clipPath>
	<path clip-path="url(#SVGID_6_)" d="M662.502,150.688c-7.122-3.523-14.345-5.286-21.672-5.286c-3.316,0-5.816,0.583-7.51,1.745
		c-1.689,1.165-2.535,2.694-2.535,4.598c0,2.961,2.289,5.076,6.87,6.344c11.065,2.962,18.855,6.504,23.367,10.627
		c4.509,4.121,6.765,9.393,6.765,15.804c0,7.757-2.677,13.661-8.032,17.711c-5.358,4.053-13.43,6.082-24.213,6.082
		c-4.512,0-9.357-0.758-14.536-2.277c-5.179-1.513-9.324-3.397-12.426-5.653l4.758-16.39c3.596,2.469,7.489,4.406,11.687,5.816
		c4.19,1.41,8.05,2.115,11.573,2.115c6.344,0,9.518-2.292,9.518-6.874c0-2.959-2.82-5.249-8.46-6.873
		c-10.29-2.958-17.623-6.517-21.992-10.678c-4.367-4.157-6.553-9.41-6.553-15.754c0-6.977,2.674-12.511,8.036-16.6
		c5.354-4.086,12.898-6.13,22.625-6.13c10.43,0,19.241,1.762,26.433,5.285L662.502,150.688z"/>
</g>
<polygon points="700.248,162.848 700.457,162.848 720.336,130.07 744.654,130.07 720.336,167.078 745.71,207.251 721.392,207.251 
	700.457,171.305 700.248,171.305 700.248,207.251 679.101,207.251 679.101,130.07 700.248,130.07 "/>
<path d="M778.383,176.591h13.956l-6.872-28.547h-0.214L778.383,176.591z M789.799,123.728h-16.913l10.569-19.03h23.26
	L789.799,123.728z M774.576,192.451l-3.49,14.803h-21.989l25.375-77.183h22.201l25.374,77.183h-22.415l-3.594-14.803H774.576z"/>
<g>
	<defs>
		<rect id="SVGID_7_" width="850.394" height="425.197"/>
	</defs>
	<clipPath id="SVGID_8_">
		<use xlink:href="#SVGID_7_"  overflow="visible"/>
	</clipPath>
	<path clip-path="url(#SVGID_8_)" d="M345.958,255.048c-7.122-3.522-14.346-5.288-21.677-5.288c-3.314,0-5.813,0.585-7.505,1.747
		c-1.692,1.164-2.537,2.695-2.537,4.597c0,2.963,2.288,5.076,6.871,6.344c11.066,2.963,18.854,6.504,23.367,10.627
		c4.508,4.122,6.765,9.394,6.765,15.808c0,7.753-2.679,13.656-8.032,17.709c-5.36,4.054-13.43,6.076-24.213,6.076
		c-4.512,0-9.359-0.755-14.539-2.269c-5.182-1.519-9.324-3.401-12.422-5.657l4.755-16.39c3.597,2.468,7.49,4.406,11.685,5.816
		c4.192,1.409,8.05,2.116,11.576,2.116c6.343,0,9.516-2.293,9.516-6.872c0-2.963-2.818-5.251-8.458-6.877
		c-10.293-2.955-17.62-6.519-21.992-10.677c-4.368-4.157-6.554-9.411-6.554-15.755c0-6.977,2.675-12.511,8.035-16.595
		c5.356-4.091,12.899-6.135,22.627-6.135c10.429,0,19.242,1.761,26.433,5.286L345.958,255.048z"/>
</g>
<polygon points="421.234,234.433 421.234,251.874 400.304,251.874 400.304,311.612 378.732,311.612 378.732,251.874 
	357.795,251.874 357.795,234.433 "/>
<g>
	<defs>
		<rect id="SVGID_9_" width="850.394" height="425.197"/>
	</defs>
	<clipPath id="SVGID_10_">
		<use xlink:href="#SVGID_9_"  overflow="visible"/>
	</clipPath>
	<path clip-path="url(#SVGID_10_)" d="M453.164,269.322h5.816c3.593,0,6.429-0.897,8.51-2.699c2.077-1.792,3.119-4.241,3.119-7.344
		c0-6.698-3.875-10.047-11.629-10.047c-2.259,0-4.195,0.18-5.816,0.528V269.322z M453.164,284.653v26.959h-20.618V234.96
		c9.163-1.056,18.327-1.586,27.49-1.586c21.146,0,31.721,7.93,31.721,23.787c0,4.442-1.378,8.563-4.124,12.372
		c-2.751,3.805-6.31,6.52-10.677,8.142v0.21c2.11,1.2,3.872,2.734,5.282,4.599c1.411,1.869,2.751,4.531,4.018,7.984l7.614,21.144
		h-21.675l-6.555-20.088c-0.776-2.466-1.766-4.23-2.961-5.285c-1.2-1.059-2.783-1.586-4.76-1.586H453.164z"/>
</g>
<path d="M528.652,280.95h13.958l-6.874-28.546h-0.213L528.652,280.95z M524.848,296.812l-3.49,14.8h-21.99l25.374-77.179h22.201
	l25.375,77.179h-22.412l-3.596-14.8H524.848z"/>
<polygon points="624.653,276.724 624.865,276.724 624.865,234.433 645.482,234.433 645.482,311.612 624.865,311.612 
	601.817,269.325 601.605,269.325 601.605,311.612 580.99,311.612 580.99,234.433 601.605,234.433 "/>
<path d="M683.439,280.95h13.955l-6.871-28.546h-0.209L683.439,280.95z M679.634,296.812l-3.489,14.8h-21.99l25.374-77.179h22.202
	l25.373,77.179h-22.41l-3.596-14.8H679.634z"/>
</svg>
